# xmcd CD database file
#
# Track frame offsets:
#	150
#	19959
#	35961
#	50270
#	61895
#	80062
#	97189
#	118571
#	133621
#	144233
#	156423
#
# Disc length: 2274 seconds
#
# Revision: 0
# Processed by: cddbd v1.5.2PL0 Copyright (c) Steve Scherf et al.
# Submitted via: CDex 1.70beta2
#
DISCID=9c08e00b
DTITLE=Jeff Dale And The South Woodlawners - Blues From The Southside Of my Soul
DYEAR=2009
DGENRE=Blues
TTITLE0=Blues From The Southside Of my Soul
TTITLE1=Alabama Lovin'
TTITLE2=Love My baby Blind
TTITLE3=Ny Way Or The Highway
TTITLE4=You Don't Know Nothin' About Chicago
TTITLE5=Grown Ass Man
TTITLE6=I'd Hit It
TTITLE7=Nothing But The Blues
TTITLE8=Big Gas Station
TTITLE9=Highway One
TTITLE10=Third Rail
EXTD=YEAR: 2009
EXTT0=
EXTT1=
EXTT2=
EXTT3=
EXTT4=
EXTT5=
EXTT6=
EXTT7=
EXTT8=
EXTT9=
EXTT10=
PLAYORDER=
